<svg width="23" height="19" viewBox="0 0 23 19" fill="none" xmlns="http://www.w3.org/2000/svg">
<path d="M21.9653 6.06923C21.6588 3.13164 19.2707 1.00035 16.282 1.00035C14.2909 1.00035 12.4678 1.93325 11.442 3.42842C10.4255 1.91391 8.6771 1 6.71792 1C3.72967 1 1.34118 3.13128 1.03504 6.06888C1.01081 6.19863 0.911456 6.88152 1.21355 7.99516C1.64893 9.60145 2.65457 11.0625 4.12103 12.2194L11.4372 18L18.8789 12.2198C20.3454 11.0625 21.351 9.6018 21.7864 7.99516C22.0885 6.88187 21.9891 6.19899 21.9653 6.06923ZM21 7.83411C20.6026 9.30115 19.6814 10.6377 18.3385 11.6969L11.442 17.0541L4.66383 11.6983C3.31853 10.637 2.3977 9.3008 1.99989 7.83376C1.71395 6.77989 1.83148 6.18457 1.83188 6.1807L1.83794 6.14519C2.10045 3.57154 4.15253 1.70328 6.71792 1.70328C8.61087 1.70328 10.2772 2.716 11.068 4.34585L11.44 5.11348L11.812 4.34585C12.5902 2.74097 14.3446 1.70363 16.2824 1.70363C18.8474 1.70363 20.8999 3.57189 21.1676 6.17894C21.1685 6.18457 21.286 6.78025 21 7.83411Z" fill="#1B1A17" stroke="#1B1A17" stroke-width="0.75"/>
</svg>
